<mxfile host="app.diagrams.net" agent="Mozilla/5.0 (X11; Linux x86_64; rv:132.0) Gecko/20100101 Firefox/132.0" version="24.9.3">
  <diagram name="Page-1" id="52a04d89-c75d-2922-d76d-85b35f80e030">
    <mxGraphModel dx="2122" dy="605" grid="1" gridSize="10" guides="1" tooltips="1" connect="1" arrows="1" fold="1" page="1" pageScale="1" pageWidth="1100" pageHeight="850" background="none" math="0" shadow="0">
      <root>
        <mxCell id="0" />
        <mxCell id="1" parent="0" />
        <mxCell id="6_CQW3pqGOPleCHFsFAR-50" value="" style="group;movable=1;resizable=1;rotatable=1;deletable=1;editable=1;locked=0;connectable=1;" vertex="1" connectable="0" parent="1">
          <mxGeometry x="30" y="230" width="1350" height="110" as="geometry" />
        </mxCell>
        <mxCell id="6_CQW3pqGOPleCHFsFAR-51" value="" style="rounded=1;whiteSpace=wrap;html=1;movable=1;resizable=1;rotatable=1;deletable=1;editable=1;locked=0;connectable=1;" vertex="1" parent="6_CQW3pqGOPleCHFsFAR-50">
          <mxGeometry x="30" y="-10" width="1160" height="120" as="geometry" />
        </mxCell>
        <mxCell id="6_CQW3pqGOPleCHFsFAR-27" style="edgeStyle=orthogonalEdgeStyle;rounded=0;orthogonalLoop=1;jettySize=auto;html=1;entryX=0;entryY=0.5;entryDx=0;entryDy=0;" edge="1" parent="6_CQW3pqGOPleCHFsFAR-50" source="6_CQW3pqGOPleCHFsFAR-20" target="6_CQW3pqGOPleCHFsFAR-26">
          <mxGeometry relative="1" as="geometry" />
        </mxCell>
        <mxCell id="6_CQW3pqGOPleCHFsFAR-20" value="Filter" style="whiteSpace=wrap;html=1;rounded=0;shadow=0;comic=0;labelBackgroundColor=none;strokeWidth=1;fontFamily=Verdana;fontSize=12;align=center;" vertex="1" parent="6_CQW3pqGOPleCHFsFAR-50">
          <mxGeometry x="80" y="30" width="120" height="40" as="geometry" />
        </mxCell>
        <mxCell id="6_CQW3pqGOPleCHFsFAR-23" value="" style="edgeStyle=orthogonalEdgeStyle;rounded=0;orthogonalLoop=1;jettySize=auto;html=1;entryX=0;entryY=0.5;entryDx=0;entryDy=0;" edge="1" parent="6_CQW3pqGOPleCHFsFAR-50" target="6_CQW3pqGOPleCHFsFAR-20">
          <mxGeometry relative="1" as="geometry">
            <mxPoint y="50" as="sourcePoint" />
            <mxPoint x="110" y="49.710000000000036" as="targetPoint" />
          </mxGeometry>
        </mxCell>
        <mxCell id="6_CQW3pqGOPleCHFsFAR-32" style="edgeStyle=orthogonalEdgeStyle;rounded=0;orthogonalLoop=1;jettySize=auto;html=1;entryX=0;entryY=0.5;entryDx=0;entryDy=0;" edge="1" parent="6_CQW3pqGOPleCHFsFAR-50" source="6_CQW3pqGOPleCHFsFAR-26" target="6_CQW3pqGOPleCHFsFAR-28">
          <mxGeometry relative="1" as="geometry" />
        </mxCell>
        <mxCell id="6_CQW3pqGOPleCHFsFAR-33" style="edgeStyle=orthogonalEdgeStyle;rounded=0;orthogonalLoop=1;jettySize=auto;html=1;entryX=0;entryY=0.5;entryDx=0;entryDy=0;" edge="1" parent="6_CQW3pqGOPleCHFsFAR-50" source="6_CQW3pqGOPleCHFsFAR-26" target="6_CQW3pqGOPleCHFsFAR-29">
          <mxGeometry relative="1" as="geometry" />
        </mxCell>
        <mxCell id="6_CQW3pqGOPleCHFsFAR-26" value="Balance" style="whiteSpace=wrap;html=1;rounded=0;shadow=0;comic=0;labelBackgroundColor=none;strokeWidth=1;fontFamily=Verdana;fontSize=12;align=center;fillColor=#f8cecc;strokeColor=#b85450;" vertex="1" parent="6_CQW3pqGOPleCHFsFAR-50">
          <mxGeometry x="240" y="30" width="120" height="40" as="geometry" />
        </mxCell>
        <mxCell id="6_CQW3pqGOPleCHFsFAR-35" style="edgeStyle=orthogonalEdgeStyle;rounded=0;orthogonalLoop=1;jettySize=auto;html=1;entryX=0;entryY=0.5;entryDx=0;entryDy=0;" edge="1" parent="6_CQW3pqGOPleCHFsFAR-50" source="6_CQW3pqGOPleCHFsFAR-28" target="6_CQW3pqGOPleCHFsFAR-30">
          <mxGeometry relative="1" as="geometry" />
        </mxCell>
        <mxCell id="6_CQW3pqGOPleCHFsFAR-28" value="Buffer" style="whiteSpace=wrap;html=1;rounded=0;shadow=0;comic=0;labelBackgroundColor=none;strokeWidth=1;fontFamily=Verdana;fontSize=12;align=center;fillColor=#ffe6cc;strokeColor=#d79b00;" vertex="1" parent="6_CQW3pqGOPleCHFsFAR-50">
          <mxGeometry x="400" width="120" height="40" as="geometry" />
        </mxCell>
        <mxCell id="6_CQW3pqGOPleCHFsFAR-39" style="edgeStyle=orthogonalEdgeStyle;rounded=0;orthogonalLoop=1;jettySize=auto;html=1;entryX=0;entryY=0.5;entryDx=0;entryDy=0;" edge="1" parent="6_CQW3pqGOPleCHFsFAR-50" source="6_CQW3pqGOPleCHFsFAR-29" target="6_CQW3pqGOPleCHFsFAR-38">
          <mxGeometry relative="1" as="geometry" />
        </mxCell>
        <mxCell id="6_CQW3pqGOPleCHFsFAR-29" value="Buffer" style="whiteSpace=wrap;html=1;rounded=0;shadow=0;comic=0;labelBackgroundColor=none;strokeWidth=1;fontFamily=Verdana;fontSize=12;align=center;fillColor=#ffe6cc;strokeColor=#d79b00;" vertex="1" parent="6_CQW3pqGOPleCHFsFAR-50">
          <mxGeometry x="400" y="60" width="120" height="40" as="geometry" />
        </mxCell>
        <mxCell id="6_CQW3pqGOPleCHFsFAR-36" style="edgeStyle=orthogonalEdgeStyle;rounded=0;orthogonalLoop=1;jettySize=auto;html=1;entryX=0;entryY=0.5;entryDx=0;entryDy=0;" edge="1" parent="6_CQW3pqGOPleCHFsFAR-50" source="6_CQW3pqGOPleCHFsFAR-30" target="6_CQW3pqGOPleCHFsFAR-34">
          <mxGeometry relative="1" as="geometry" />
        </mxCell>
        <mxCell id="6_CQW3pqGOPleCHFsFAR-30" value="GroupAndCount" style="whiteSpace=wrap;html=1;rounded=1;shadow=0;comic=0;labelBackgroundColor=none;strokeWidth=1;fontFamily=Verdana;fontSize=12;align=center;" vertex="1" parent="6_CQW3pqGOPleCHFsFAR-50">
          <mxGeometry x="560" width="120" height="40" as="geometry" />
        </mxCell>
        <mxCell id="6_CQW3pqGOPleCHFsFAR-98" style="edgeStyle=orthogonalEdgeStyle;rounded=0;orthogonalLoop=1;jettySize=auto;html=1;entryX=0;entryY=0.5;entryDx=0;entryDy=0;" edge="1" parent="6_CQW3pqGOPleCHFsFAR-50" source="6_CQW3pqGOPleCHFsFAR-34" target="6_CQW3pqGOPleCHFsFAR-97">
          <mxGeometry relative="1" as="geometry" />
        </mxCell>
        <mxCell id="6_CQW3pqGOPleCHFsFAR-34" value="Merge" style="whiteSpace=wrap;html=1;rounded=0;shadow=0;comic=0;labelBackgroundColor=none;strokeWidth=1;fontFamily=Verdana;fontSize=12;align=center;fillColor=#f8cecc;strokeColor=#b85450;" vertex="1" parent="6_CQW3pqGOPleCHFsFAR-50">
          <mxGeometry x="720" y="30" width="120" height="40" as="geometry" />
        </mxCell>
        <mxCell id="6_CQW3pqGOPleCHFsFAR-40" style="edgeStyle=orthogonalEdgeStyle;rounded=0;orthogonalLoop=1;jettySize=auto;html=1;entryX=0;entryY=0.5;entryDx=0;entryDy=0;" edge="1" parent="6_CQW3pqGOPleCHFsFAR-50" source="6_CQW3pqGOPleCHFsFAR-38" target="6_CQW3pqGOPleCHFsFAR-34">
          <mxGeometry relative="1" as="geometry" />
        </mxCell>
        <mxCell id="6_CQW3pqGOPleCHFsFAR-38" value="GroupAndCount" style="whiteSpace=wrap;html=1;rounded=1;shadow=0;comic=0;labelBackgroundColor=none;strokeWidth=1;fontFamily=Verdana;fontSize=12;align=center;" vertex="1" parent="6_CQW3pqGOPleCHFsFAR-50">
          <mxGeometry x="560" y="60" width="120" height="40" as="geometry" />
        </mxCell>
        <mxCell id="6_CQW3pqGOPleCHFsFAR-49" value="" style="edgeStyle=orthogonalEdgeStyle;rounded=0;orthogonalLoop=1;jettySize=auto;html=1;" edge="1" parent="6_CQW3pqGOPleCHFsFAR-50" source="6_CQW3pqGOPleCHFsFAR-44">
          <mxGeometry relative="1" as="geometry">
            <mxPoint x="1230" y="50" as="targetPoint" />
          </mxGeometry>
        </mxCell>
        <mxCell id="6_CQW3pqGOPleCHFsFAR-44" value="ToByteString" style="whiteSpace=wrap;html=1;rounded=0;shadow=0;comic=0;labelBackgroundColor=none;strokeWidth=1;fontFamily=Verdana;fontSize=12;align=center;" vertex="1" parent="6_CQW3pqGOPleCHFsFAR-50">
          <mxGeometry x="1030" y="30" width="120" height="40" as="geometry" />
        </mxCell>
        <mxCell id="6_CQW3pqGOPleCHFsFAR-99" style="edgeStyle=orthogonalEdgeStyle;rounded=0;orthogonalLoop=1;jettySize=auto;html=1;entryX=0;entryY=0.5;entryDx=0;entryDy=0;" edge="1" parent="6_CQW3pqGOPleCHFsFAR-50" source="6_CQW3pqGOPleCHFsFAR-97" target="6_CQW3pqGOPleCHFsFAR-44">
          <mxGeometry relative="1" as="geometry">
            <mxPoint x="1040" y="50" as="targetPoint" />
          </mxGeometry>
        </mxCell>
        <mxCell id="6_CQW3pqGOPleCHFsFAR-97" value="CountAgain" style="whiteSpace=wrap;html=1;rounded=0;shadow=0;comic=0;labelBackgroundColor=none;strokeWidth=1;fontFamily=Verdana;fontSize=12;align=center;" vertex="1" parent="6_CQW3pqGOPleCHFsFAR-50">
          <mxGeometry x="880" y="30" width="120" height="40" as="geometry" />
        </mxCell>
        <mxCell id="6_CQW3pqGOPleCHFsFAR-259" value="" style="group" vertex="1" connectable="0" parent="1">
          <mxGeometry x="5" y="390" width="935" height="240" as="geometry" />
        </mxCell>
        <mxCell id="6_CQW3pqGOPleCHFsFAR-178" value="" style="rounded=1;whiteSpace=wrap;html=1;movable=1;resizable=1;rotatable=1;deletable=1;editable=1;locked=0;connectable=1;" vertex="1" parent="6_CQW3pqGOPleCHFsFAR-259">
          <mxGeometry x="30" width="865" height="240" as="geometry" />
        </mxCell>
        <mxCell id="6_CQW3pqGOPleCHFsFAR-179" style="edgeStyle=orthogonalEdgeStyle;rounded=0;orthogonalLoop=1;jettySize=auto;html=1;entryX=0;entryY=0.5;entryDx=0;entryDy=0;" edge="1" parent="6_CQW3pqGOPleCHFsFAR-259" source="6_CQW3pqGOPleCHFsFAR-180" target="6_CQW3pqGOPleCHFsFAR-184">
          <mxGeometry relative="1" as="geometry" />
        </mxCell>
        <mxCell id="6_CQW3pqGOPleCHFsFAR-180" value="Filter" style="whiteSpace=wrap;html=1;rounded=0;shadow=0;comic=0;labelBackgroundColor=none;strokeWidth=1;fontFamily=Verdana;fontSize=12;align=center;" vertex="1" parent="6_CQW3pqGOPleCHFsFAR-259">
          <mxGeometry x="80" y="100" width="120" height="40" as="geometry" />
        </mxCell>
        <mxCell id="6_CQW3pqGOPleCHFsFAR-182" style="edgeStyle=orthogonalEdgeStyle;rounded=0;orthogonalLoop=1;jettySize=auto;html=1;entryX=0;entryY=0.5;entryDx=0;entryDy=0;" edge="1" parent="6_CQW3pqGOPleCHFsFAR-259" source="6_CQW3pqGOPleCHFsFAR-184" target="6_CQW3pqGOPleCHFsFAR-186">
          <mxGeometry relative="1" as="geometry" />
        </mxCell>
        <mxCell id="6_CQW3pqGOPleCHFsFAR-183" style="edgeStyle=orthogonalEdgeStyle;rounded=0;orthogonalLoop=1;jettySize=auto;html=1;entryX=0;entryY=0.5;entryDx=0;entryDy=0;" edge="1" parent="6_CQW3pqGOPleCHFsFAR-259" source="6_CQW3pqGOPleCHFsFAR-184" target="6_CQW3pqGOPleCHFsFAR-188">
          <mxGeometry relative="1" as="geometry" />
        </mxCell>
        <mxCell id="6_CQW3pqGOPleCHFsFAR-224" style="edgeStyle=orthogonalEdgeStyle;rounded=0;orthogonalLoop=1;jettySize=auto;html=1;entryX=0;entryY=0.5;entryDx=0;entryDy=0;" edge="1" parent="6_CQW3pqGOPleCHFsFAR-259" source="6_CQW3pqGOPleCHFsFAR-184" target="6_CQW3pqGOPleCHFsFAR-199">
          <mxGeometry relative="1" as="geometry" />
        </mxCell>
        <mxCell id="6_CQW3pqGOPleCHFsFAR-225" style="edgeStyle=orthogonalEdgeStyle;rounded=0;orthogonalLoop=1;jettySize=auto;html=1;entryX=0;entryY=0.5;entryDx=0;entryDy=0;" edge="1" parent="6_CQW3pqGOPleCHFsFAR-259" source="6_CQW3pqGOPleCHFsFAR-184" target="6_CQW3pqGOPleCHFsFAR-223">
          <mxGeometry relative="1" as="geometry" />
        </mxCell>
        <mxCell id="6_CQW3pqGOPleCHFsFAR-184" value="groupBy" style="whiteSpace=wrap;html=1;rounded=0;shadow=0;comic=0;labelBackgroundColor=none;strokeWidth=1;fontFamily=Verdana;fontSize=12;align=center;fillColor=#f8cecc;strokeColor=#b85450;" vertex="1" parent="6_CQW3pqGOPleCHFsFAR-259">
          <mxGeometry x="240" y="100" width="120" height="40" as="geometry" />
        </mxCell>
        <mxCell id="6_CQW3pqGOPleCHFsFAR-185" style="edgeStyle=orthogonalEdgeStyle;rounded=0;orthogonalLoop=1;jettySize=auto;html=1;entryX=0;entryY=0.5;entryDx=0;entryDy=0;entryPerimeter=0;" edge="1" parent="6_CQW3pqGOPleCHFsFAR-259" source="6_CQW3pqGOPleCHFsFAR-186" target="6_CQW3pqGOPleCHFsFAR-226">
          <mxGeometry relative="1" as="geometry">
            <mxPoint x="560" y="30" as="targetPoint" />
          </mxGeometry>
        </mxCell>
        <mxCell id="6_CQW3pqGOPleCHFsFAR-186" value="ToSingleCounter" style="whiteSpace=wrap;html=1;rounded=0;shadow=0;comic=0;labelBackgroundColor=none;strokeWidth=1;fontFamily=Verdana;fontSize=12;align=center;" vertex="1" parent="6_CQW3pqGOPleCHFsFAR-259">
          <mxGeometry x="400" y="10" width="120" height="40" as="geometry" />
        </mxCell>
        <mxCell id="6_CQW3pqGOPleCHFsFAR-188" value="ToSingleCounter" style="whiteSpace=wrap;html=1;rounded=0;shadow=0;comic=0;labelBackgroundColor=none;strokeWidth=1;fontFamily=Verdana;fontSize=12;align=center;" vertex="1" parent="6_CQW3pqGOPleCHFsFAR-259">
          <mxGeometry x="400" y="70" width="120" height="40" as="geometry" />
        </mxCell>
        <mxCell id="6_CQW3pqGOPleCHFsFAR-192" value="mergeSubstreams" style="whiteSpace=wrap;html=1;rounded=0;shadow=0;comic=0;labelBackgroundColor=none;strokeWidth=1;fontFamily=Verdana;fontSize=12;align=center;fillColor=#f8cecc;strokeColor=#b85450;" vertex="1" parent="6_CQW3pqGOPleCHFsFAR-259">
          <mxGeometry x="731" y="100" width="120" height="40" as="geometry" />
        </mxCell>
        <mxCell id="6_CQW3pqGOPleCHFsFAR-195" value="" style="edgeStyle=orthogonalEdgeStyle;rounded=0;orthogonalLoop=1;jettySize=auto;html=1;" edge="1" parent="6_CQW3pqGOPleCHFsFAR-259">
          <mxGeometry relative="1" as="geometry">
            <mxPoint x="935" y="119.57999999999998" as="targetPoint" />
            <mxPoint x="855" y="119.57999999999998" as="sourcePoint" />
          </mxGeometry>
        </mxCell>
        <mxCell id="6_CQW3pqGOPleCHFsFAR-199" value="ToSingleCounter" style="whiteSpace=wrap;html=1;rounded=0;shadow=0;comic=0;labelBackgroundColor=none;strokeWidth=1;fontFamily=Verdana;fontSize=12;align=center;" vertex="1" parent="6_CQW3pqGOPleCHFsFAR-259">
          <mxGeometry x="400" y="130" width="120" height="40" as="geometry" />
        </mxCell>
        <mxCell id="6_CQW3pqGOPleCHFsFAR-223" value="&lt;h1&gt;&lt;b&gt;...&lt;/b&gt;&lt;/h1&gt;" style="whiteSpace=wrap;html=1;rounded=0;shadow=0;comic=0;labelBackgroundColor=none;strokeWidth=1;fontFamily=Verdana;fontSize=12;align=center;" vertex="1" parent="6_CQW3pqGOPleCHFsFAR-259">
          <mxGeometry x="400" y="190" width="120" height="40" as="geometry" />
        </mxCell>
        <mxCell id="6_CQW3pqGOPleCHFsFAR-258" style="edgeStyle=orthogonalEdgeStyle;rounded=0;orthogonalLoop=1;jettySize=auto;html=1;entryX=0;entryY=0.5;entryDx=0;entryDy=0;" edge="1" parent="6_CQW3pqGOPleCHFsFAR-259" source="6_CQW3pqGOPleCHFsFAR-226" target="6_CQW3pqGOPleCHFsFAR-192">
          <mxGeometry relative="1" as="geometry" />
        </mxCell>
        <mxCell id="6_CQW3pqGOPleCHFsFAR-226" value="Reduce" style="whiteSpace=wrap;html=1;rounded=0;shadow=0;comic=0;labelBackgroundColor=none;strokeWidth=1;fontFamily=Verdana;fontSize=12;align=center;" vertex="1" parent="6_CQW3pqGOPleCHFsFAR-259">
          <mxGeometry x="565" y="10" width="120" height="40" as="geometry" />
        </mxCell>
        <mxCell id="6_CQW3pqGOPleCHFsFAR-228" value="" style="edgeStyle=orthogonalEdgeStyle;rounded=0;orthogonalLoop=1;jettySize=auto;html=1;entryX=0;entryY=0.5;entryDx=0;entryDy=0;" edge="1" parent="6_CQW3pqGOPleCHFsFAR-259" target="6_CQW3pqGOPleCHFsFAR-180">
          <mxGeometry relative="1" as="geometry">
            <mxPoint y="119.58000000000004" as="sourcePoint" />
            <mxPoint x="80" y="119.58000000000004" as="targetPoint" />
          </mxGeometry>
        </mxCell>
        <mxCell id="6_CQW3pqGOPleCHFsFAR-237" style="edgeStyle=orthogonalEdgeStyle;rounded=0;orthogonalLoop=1;jettySize=auto;html=1;entryX=0;entryY=0.5;entryDx=0;entryDy=0;" edge="1" parent="6_CQW3pqGOPleCHFsFAR-259" target="6_CQW3pqGOPleCHFsFAR-239">
          <mxGeometry relative="1" as="geometry">
            <mxPoint x="520" y="90" as="sourcePoint" />
            <mxPoint x="560" y="90" as="targetPoint" />
          </mxGeometry>
        </mxCell>
        <mxCell id="6_CQW3pqGOPleCHFsFAR-256" style="edgeStyle=orthogonalEdgeStyle;rounded=0;orthogonalLoop=1;jettySize=auto;html=1;" edge="1" parent="6_CQW3pqGOPleCHFsFAR-259" source="6_CQW3pqGOPleCHFsFAR-239" target="6_CQW3pqGOPleCHFsFAR-192">
          <mxGeometry relative="1" as="geometry" />
        </mxCell>
        <mxCell id="6_CQW3pqGOPleCHFsFAR-239" value="Reduce" style="whiteSpace=wrap;html=1;rounded=0;shadow=0;comic=0;labelBackgroundColor=none;strokeWidth=1;fontFamily=Verdana;fontSize=12;align=center;" vertex="1" parent="6_CQW3pqGOPleCHFsFAR-259">
          <mxGeometry x="565" y="70" width="120" height="40" as="geometry" />
        </mxCell>
        <mxCell id="6_CQW3pqGOPleCHFsFAR-241" style="edgeStyle=orthogonalEdgeStyle;rounded=0;orthogonalLoop=1;jettySize=auto;html=1;entryX=0;entryY=0.5;entryDx=0;entryDy=0;" edge="1" parent="6_CQW3pqGOPleCHFsFAR-259" target="6_CQW3pqGOPleCHFsFAR-243">
          <mxGeometry relative="1" as="geometry">
            <mxPoint x="520" y="150" as="sourcePoint" />
            <mxPoint x="560" y="150" as="targetPoint" />
          </mxGeometry>
        </mxCell>
        <mxCell id="6_CQW3pqGOPleCHFsFAR-255" style="edgeStyle=orthogonalEdgeStyle;rounded=0;orthogonalLoop=1;jettySize=auto;html=1;" edge="1" parent="6_CQW3pqGOPleCHFsFAR-259" source="6_CQW3pqGOPleCHFsFAR-243" target="6_CQW3pqGOPleCHFsFAR-192">
          <mxGeometry relative="1" as="geometry" />
        </mxCell>
        <mxCell id="6_CQW3pqGOPleCHFsFAR-243" value="Reduce" style="whiteSpace=wrap;html=1;rounded=0;shadow=0;comic=0;labelBackgroundColor=none;strokeWidth=1;fontFamily=Verdana;fontSize=12;align=center;" vertex="1" parent="6_CQW3pqGOPleCHFsFAR-259">
          <mxGeometry x="565" y="130" width="120" height="40" as="geometry" />
        </mxCell>
        <mxCell id="6_CQW3pqGOPleCHFsFAR-249" style="edgeStyle=orthogonalEdgeStyle;rounded=0;orthogonalLoop=1;jettySize=auto;html=1;entryX=0;entryY=0.5;entryDx=0;entryDy=0;" edge="1" parent="6_CQW3pqGOPleCHFsFAR-259" target="6_CQW3pqGOPleCHFsFAR-251">
          <mxGeometry relative="1" as="geometry">
            <mxPoint x="520" y="210" as="sourcePoint" />
            <mxPoint x="560" y="210" as="targetPoint" />
          </mxGeometry>
        </mxCell>
        <mxCell id="6_CQW3pqGOPleCHFsFAR-253" style="edgeStyle=orthogonalEdgeStyle;rounded=0;orthogonalLoop=1;jettySize=auto;html=1;entryX=0;entryY=0.5;entryDx=0;entryDy=0;" edge="1" parent="6_CQW3pqGOPleCHFsFAR-259" source="6_CQW3pqGOPleCHFsFAR-251" target="6_CQW3pqGOPleCHFsFAR-192">
          <mxGeometry relative="1" as="geometry" />
        </mxCell>
        <mxCell id="6_CQW3pqGOPleCHFsFAR-251" value="&lt;h1&gt;&lt;b&gt;...&lt;/b&gt;&lt;/h1&gt;" style="whiteSpace=wrap;html=1;rounded=0;shadow=0;comic=0;labelBackgroundColor=none;strokeWidth=1;fontFamily=Verdana;fontSize=12;align=center;" vertex="1" parent="6_CQW3pqGOPleCHFsFAR-259">
          <mxGeometry x="565" y="190" width="120" height="40" as="geometry" />
        </mxCell>
        <mxCell id="6_CQW3pqGOPleCHFsFAR-260" value="" style="group" vertex="1" connectable="0" parent="1">
          <mxGeometry x="30" y="120" width="680" height="50" as="geometry" />
        </mxCell>
        <mxCell id="6_CQW3pqGOPleCHFsFAR-7" value="" style="edgeStyle=orthogonalEdgeStyle;rounded=0;orthogonalLoop=1;jettySize=auto;html=1;exitX=1;exitY=0.5;exitDx=0;exitDy=0;" edge="1" parent="6_CQW3pqGOPleCHFsFAR-260" source="6_CQW3pqGOPleCHFsFAR-15" target="6_CQW3pqGOPleCHFsFAR-6">
          <mxGeometry relative="1" as="geometry">
            <mxPoint x="120" y="25" as="sourcePoint" />
          </mxGeometry>
        </mxCell>
        <mxCell id="6_CQW3pqGOPleCHFsFAR-17" style="edgeStyle=orthogonalEdgeStyle;rounded=0;orthogonalLoop=1;jettySize=auto;html=1;exitX=1;exitY=0.5;exitDx=0;exitDy=0;" edge="1" parent="6_CQW3pqGOPleCHFsFAR-260" source="6_CQW3pqGOPleCHFsFAR-6" target="6_CQW3pqGOPleCHFsFAR-16">
          <mxGeometry relative="1" as="geometry" />
        </mxCell>
        <mxCell id="6_CQW3pqGOPleCHFsFAR-6" value="byteStringToMatchFlow" style="whiteSpace=wrap;html=1;fontFamily=Verdana;rounded=1;shadow=0;comic=0;labelBackgroundColor=none;strokeWidth=1;" vertex="1" parent="6_CQW3pqGOPleCHFsFAR-260">
          <mxGeometry x="160" width="160" height="40" as="geometry" />
        </mxCell>
        <mxCell id="6_CQW3pqGOPleCHFsFAR-14" style="edgeStyle=orthogonalEdgeStyle;rounded=0;orthogonalLoop=1;jettySize=auto;html=1;exitX=0.5;exitY=1;exitDx=0;exitDy=0;" edge="1" parent="6_CQW3pqGOPleCHFsFAR-260">
          <mxGeometry relative="1" as="geometry">
            <mxPoint x="60" y="50" as="sourcePoint" />
            <mxPoint x="60" y="50" as="targetPoint" />
          </mxGeometry>
        </mxCell>
        <mxCell id="6_CQW3pqGOPleCHFsFAR-15" value="source" style="whiteSpace=wrap;html=1;rounded=0;shadow=0;comic=0;labelBackgroundColor=none;strokeWidth=1;fontFamily=Verdana;fontSize=12;align=center;" vertex="1" parent="6_CQW3pqGOPleCHFsFAR-260">
          <mxGeometry width="120" height="40" as="geometry" />
        </mxCell>
        <mxCell id="6_CQW3pqGOPleCHFsFAR-47" style="edgeStyle=orthogonalEdgeStyle;rounded=0;orthogonalLoop=1;jettySize=auto;html=1;entryX=0;entryY=0.5;entryDx=0;entryDy=0;" edge="1" parent="6_CQW3pqGOPleCHFsFAR-260" source="6_CQW3pqGOPleCHFsFAR-16" target="6_CQW3pqGOPleCHFsFAR-46">
          <mxGeometry relative="1" as="geometry" />
        </mxCell>
        <mxCell id="6_CQW3pqGOPleCHFsFAR-16" value="Question&lt;b&gt;X&lt;/b&gt;.flowGraph" style="whiteSpace=wrap;html=1;rounded=1;shadow=0;comic=0;labelBackgroundColor=none;strokeWidth=1;fontFamily=Verdana;fontSize=12;align=center;arcSize=12;" vertex="1" parent="6_CQW3pqGOPleCHFsFAR-260">
          <mxGeometry x="360" width="160" height="40" as="geometry" />
        </mxCell>
        <mxCell id="6_CQW3pqGOPleCHFsFAR-46" value="Question&lt;b&gt;X&lt;/b&gt;.sink" style="whiteSpace=wrap;html=1;rounded=1;shadow=0;comic=0;labelBackgroundColor=none;strokeWidth=1;fontFamily=Verdana;fontSize=12;align=center;arcSize=50;fillColor=#f5f5f5;fontColor=#333333;strokeColor=#666666;" vertex="1" parent="6_CQW3pqGOPleCHFsFAR-260">
          <mxGeometry x="560" width="120" height="40" as="geometry" />
        </mxCell>
        <mxCell id="6_CQW3pqGOPleCHFsFAR-284" value="" style="group;movable=1;resizable=1;rotatable=1;deletable=1;editable=1;locked=0;connectable=1;" vertex="1" connectable="0" parent="1">
          <mxGeometry x="-10" y="670" width="1350" height="110" as="geometry" />
        </mxCell>
        <mxCell id="6_CQW3pqGOPleCHFsFAR-296" style="edgeStyle=orthogonalEdgeStyle;rounded=0;orthogonalLoop=1;jettySize=auto;html=1;entryX=0;entryY=0.5;entryDx=0;entryDy=0;" edge="1" parent="6_CQW3pqGOPleCHFsFAR-284" target="6_CQW3pqGOPleCHFsFAR-299">
          <mxGeometry relative="1" as="geometry">
            <mxPoint x="680" y="20.039999999999964" as="sourcePoint" />
          </mxGeometry>
        </mxCell>
        <mxCell id="6_CQW3pqGOPleCHFsFAR-300" style="edgeStyle=orthogonalEdgeStyle;rounded=0;orthogonalLoop=1;jettySize=auto;html=1;entryX=0;entryY=0.5;entryDx=0;entryDy=0;" edge="1" parent="6_CQW3pqGOPleCHFsFAR-284" target="6_CQW3pqGOPleCHFsFAR-299">
          <mxGeometry relative="1" as="geometry">
            <mxPoint x="680" y="80.03999999999996" as="sourcePoint" />
          </mxGeometry>
        </mxCell>
        <mxCell id="6_CQW3pqGOPleCHFsFAR-311" value="" style="group" vertex="1" connectable="0" parent="6_CQW3pqGOPleCHFsFAR-284">
          <mxGeometry y="-10" width="600" height="120" as="geometry" />
        </mxCell>
        <mxCell id="6_CQW3pqGOPleCHFsFAR-285" value="" style="rounded=1;whiteSpace=wrap;html=1;movable=1;resizable=1;rotatable=1;deletable=1;editable=1;locked=0;connectable=1;" vertex="1" parent="6_CQW3pqGOPleCHFsFAR-311">
          <mxGeometry x="30" width="530" height="120" as="geometry" />
        </mxCell>
        <mxCell id="6_CQW3pqGOPleCHFsFAR-287" value="FileDataToLines" style="whiteSpace=wrap;html=1;rounded=0;shadow=0;comic=0;labelBackgroundColor=none;strokeWidth=1;fontFamily=Verdana;fontSize=12;align=center;" vertex="1" parent="6_CQW3pqGOPleCHFsFAR-311">
          <mxGeometry x="80" y="40" width="120" height="40" as="geometry" />
        </mxCell>
        <mxCell id="6_CQW3pqGOPleCHFsFAR-288" value="" style="edgeStyle=orthogonalEdgeStyle;rounded=0;orthogonalLoop=1;jettySize=auto;html=1;entryX=0;entryY=0.5;entryDx=0;entryDy=0;" edge="1" parent="6_CQW3pqGOPleCHFsFAR-311" target="6_CQW3pqGOPleCHFsFAR-287">
          <mxGeometry relative="1" as="geometry">
            <mxPoint y="60" as="sourcePoint" />
            <mxPoint x="110" y="59.710000000000036" as="targetPoint" />
          </mxGeometry>
        </mxCell>
        <mxCell id="6_CQW3pqGOPleCHFsFAR-302" value="" style="edgeStyle=orthogonalEdgeStyle;rounded=0;orthogonalLoop=1;jettySize=auto;html=1;" edge="1" parent="6_CQW3pqGOPleCHFsFAR-311">
          <mxGeometry relative="1" as="geometry">
            <mxPoint x="600" y="59.6" as="targetPoint" />
            <mxPoint x="520" y="59.639999999999965" as="sourcePoint" />
          </mxGeometry>
        </mxCell>
        <mxCell id="6_CQW3pqGOPleCHFsFAR-307" value="LinesToMaps" style="whiteSpace=wrap;html=1;rounded=0;shadow=0;comic=0;labelBackgroundColor=none;strokeWidth=1;fontFamily=Verdana;fontSize=12;align=center;" vertex="1" parent="6_CQW3pqGOPleCHFsFAR-311">
          <mxGeometry x="240" y="40" width="120" height="40" as="geometry" />
        </mxCell>
        <mxCell id="6_CQW3pqGOPleCHFsFAR-308" value="" style="edgeStyle=orthogonalEdgeStyle;rounded=0;orthogonalLoop=1;jettySize=auto;html=1;" edge="1" parent="6_CQW3pqGOPleCHFsFAR-311" source="6_CQW3pqGOPleCHFsFAR-287" target="6_CQW3pqGOPleCHFsFAR-307">
          <mxGeometry relative="1" as="geometry" />
        </mxCell>
        <mxCell id="6_CQW3pqGOPleCHFsFAR-309" value="MapsToMatch" style="whiteSpace=wrap;html=1;rounded=0;shadow=0;comic=0;labelBackgroundColor=none;strokeWidth=1;fontFamily=Verdana;fontSize=12;align=center;" vertex="1" parent="6_CQW3pqGOPleCHFsFAR-311">
          <mxGeometry x="400" y="40" width="120" height="40" as="geometry" />
        </mxCell>
        <mxCell id="6_CQW3pqGOPleCHFsFAR-310" value="" style="edgeStyle=orthogonalEdgeStyle;rounded=0;orthogonalLoop=1;jettySize=auto;html=1;" edge="1" parent="6_CQW3pqGOPleCHFsFAR-311" source="6_CQW3pqGOPleCHFsFAR-307" target="6_CQW3pqGOPleCHFsFAR-309">
          <mxGeometry relative="1" as="geometry" />
        </mxCell>
      </root>
    </mxGraphModel>
  </diagram>
</mxfile>
